<svg height="200px" width="200px" version="1.1" id="Layer_1" xmlns="http://www.w3.org/2000/svg" xmlns:xlink="http://www.w3.org/1999/xlink" viewBox="0 0 511.986 511.986" xml:space="preserve" fill="#000000"><g id="SVGRepo_bgCarrier" stroke-width="0"></g><g id="SVGRepo_tracerCarrier" stroke-linecap="round" stroke-linejoin="round"></g><g id="SVGRepo_iconCarrier"> <path style="fill:#5D9CEC;" d="M202.767,234.104L12.492,424.381c-16.656,16.655-16.656,43.67,0,60.326 c16.656,16.672,43.671,16.672,60.327,0l190.276-190.275L202.767,234.104z"></path> <polygon style="fill:#CCD1D9;" points="336.772,190.605 306.616,160.434 217.845,249.182 248.016,279.353 "></polygon> <g> <path style="fill:#E6E9ED;" d="M331.007,211.503l-45.249-45.256c0,0,15.077-15.078,45.249-45.241 c25.922-25.93-73.584-100.263-75.475-105.622c-1.266-3.633,209.455,4.578,181.05,150.863l-30.172,30.17 C406.41,196.417,366.365,175.879,331.007,211.503z"></path> <polygon style="fill:#E6E9ED;" points="451.659,271.83 421.504,241.666 481.83,181.332 511.986,211.503 "></polygon> </g> <polygon style="fill:#CCD1D9;" points="436.582,226.58 406.41,196.417 436.582,166.247 466.752,196.417 "></polygon> <path style="fill:#4A89DC;" d="M232.908,264.244l-15.078-15.078L35.1,431.895c-4.171,4.172-4.171,10.922,0,15.094 c2.078,2.078,4.812,3.125,7.531,3.125c2.734,0,5.469-1.047,7.547-3.125L232.908,264.244z"></path> </g></svg>